<svg version="1.1" id="Layer_1" xmlns="http://www.w3.org/2000/svg" xmlns:xlink="http://www.w3.org/1999/xlink" x="0px" y="0px"
	 width="100%" viewBox="0 0 500 500" enable-background="new 0 0 500 500" xml:space="preserve">
<path fill="#000000" opacity="1.000000" stroke="none" 
	d="
M298.000000,501.000000 
	C198.666687,501.000000 99.833382,501.000000 1.000053,501.000000 
	C1.000035,334.333405 1.000035,167.666794 1.000018,1.000143 
	C167.666565,1.000095 334.333130,1.000095 500.999756,1.000047 
	C500.999847,167.666519 500.999847,334.333038 500.999939,500.999786 
	C433.500000,501.000000 366.000000,501.000000 298.000000,501.000000 
M154.372009,49.001423 
	C143.770996,49.330418 133.078293,48.890331 122.587173,50.141167 
	C97.150444,53.173950 75.127823,63.997047 56.270390,81.323456 
	C43.537781,93.022308 33.913795,106.929588 27.133789,122.757378 
	C21.383236,136.181946 17.833479,150.066879 17.916197,164.912567 
	C18.154716,207.721420 18.000179,250.532471 18.000017,293.342651 
	C18.000010,295.432068 18.000017,297.521515 18.000017,299.693665 
	C102.002068,299.693665 185.210281,299.693665 268.998749,299.693665 
	C268.998749,297.445251 268.998718,295.494324 268.998749,293.543396 
	C268.998779,254.231323 269.107178,214.918686 268.909485,175.607605 
	C268.868927,167.539490 268.220825,159.390182 266.932648,151.427139 
	C261.324554,116.760475 243.678543,89.475609 214.873260,69.632370 
	C197.029572,57.340294 177.023865,50.559940 154.372009,49.001423 
M459.487427,104.047417 
	C445.976257,84.695297 428.988220,69.453110 407.312164,59.681206 
	C394.599731,53.950256 381.345673,49.505932 367.465607,49.192703 
	C339.152954,48.553787 310.815796,48.995914 282.488739,49.012257 
	C280.739014,49.013268 278.989349,49.184120 277.393372,49.267883 
	C277.393372,134.139786 277.393372,218.366989 277.393372,302.998779 
	C279.758057,302.998779 281.732086,302.998749 283.706085,302.998779 
	C307.034241,302.998932 330.362732,303.064392 353.690369,302.951935 
	C359.303650,302.924896 364.981354,302.740906 370.513245,301.881348 
	C387.342499,299.266327 403.561676,294.666138 418.357178,285.863098 
	C437.520111,274.461517 452.939667,259.127319 463.934052,239.884369 
	C478.884247,213.717789 482.675049,185.107407 478.790588,155.576797 
	C476.388702,137.317047 470.260956,120.118980 459.487427,104.047417 
M193.000168,375.502228 
	C194.542221,370.082642 196.084274,364.663025 197.960754,358.068085 
	C198.578537,359.757812 198.819656,360.281219 198.963242,360.830170 
	C201.702408,371.303131 204.387573,381.790375 207.176743,392.249969 
	C208.748428,398.143982 212.107620,400.334167 218.649918,399.988068 
	C224.600601,399.673309 226.819504,397.395966 228.060516,391.378448 
	C229.351028,385.120819 230.962692,378.920258 232.665466,372.758698 
	C236.894638,357.455231 241.325882,342.207214 245.473236,326.882050 
	C245.981415,325.004333 246.013885,322.198120 244.957260,320.844025 
	C241.545029,316.471191 229.582306,319.195099 228.038864,324.591461 
	C224.426147,337.222656 221.015518,349.911682 217.352173,363.197052 
	C216.770706,361.358368 216.328247,360.139984 215.999542,358.891663 
	C212.990738,347.465179 209.931656,336.051208 207.038086,324.595459 
	C205.700943,319.301666 201.862717,318.990753 197.445984,318.948608 
	C193.131638,318.907501 190.090454,320.076050 188.943039,324.675812 
	C187.752289,329.449463 186.187881,334.128784 184.933701,338.888031 
	C182.895584,346.622101 180.977066,354.387695 178.647141,363.560974 
	C177.749222,361.076843 177.292267,360.058533 177.010010,358.993927 
	C174.021744,347.723145 171.150604,336.420380 168.052139,325.180206 
	C166.685852,320.223724 159.633850,317.449646 153.682144,319.214874 
	C149.533691,320.445221 149.215546,322.089935 151.664246,329.383667 
	C151.871750,330.001709 151.856613,330.691223 152.027328,331.325317 
	C157.658630,352.242432 163.382294,373.135254 168.884384,394.086243 
	C170.332397,399.600067 174.125778,400.180969 178.761261,400.024689 
	C183.179688,399.875702 186.890060,399.059784 188.123795,393.903931 
	C189.536301,388.000946 191.270721,382.175049 193.000168,375.502228 
M24.000113,383.516174 
	C23.686316,386.790405 23.434870,390.072083 23.042845,393.336945 
	C22.559298,397.363953 24.673086,399.892303 28.789333,399.980682 
	C31.121609,400.030731 33.473766,399.810425 35.785072,400.037140 
	C39.877903,400.438568 41.051014,398.275574 41.003166,394.710632 
	C40.956196,391.211334 40.998665,387.710846 40.999088,384.210876 
	C41.000080,375.993103 40.999405,367.775330 40.999405,359.557526 
	C48.235584,369.737091 54.942413,379.877686 60.649479,390.552765 
	C64.332672,397.442139 68.514671,401.474457 76.841270,400.118164 
	C80.342941,399.547821 81.969681,398.249634 81.970985,394.829254 
	C81.980011,371.162933 82.030106,347.496277 81.871635,323.831055 
	C81.862427,322.456390 80.300941,320.075104 79.200516,319.910583 
	C75.523003,319.360901 71.675056,319.241058 68.005562,319.758698 
	C66.826065,319.925140 65.292091,322.511078 65.143776,324.104004 
	C64.743744,328.400269 65.079712,332.759674 64.982628,337.090820 
	C64.814835,344.575897 64.540520,352.058563 64.310898,359.542267 
	C55.823742,347.757568 48.628311,335.959869 41.581978,324.073761 
	C38.752506,319.300842 30.294416,316.928406 25.870398,320.199371 
	C24.802425,320.988983 24.121187,322.938446 24.077888,324.379059 
	C23.623747,339.489716 23.243416,354.604187 23.060316,369.720276 
	C23.008516,373.996643 23.667177,378.281616 24.000113,383.516174 
M369.888489,396.915161 
	C370.375305,389.375610 370.862122,381.836090 371.343658,374.378113 
	C378.095520,374.378113 384.336090,374.378113 391.003296,374.378113 
	C391.003296,379.220642 391.005829,383.691284 391.002808,388.161926 
	C390.994659,400.104950 391.256653,400.285614 403.267609,400.039948 
	C406.560944,399.972565 408.950897,399.068237 409.112579,395.495148 
	C409.281006,391.774292 409.012085,388.035614 409.007263,384.304626 
	C408.988739,370.004883 409.286102,355.697479 408.903809,341.407959 
	C408.624237,330.957336 403.385834,320.057159 389.088043,318.207001 
	C385.479645,317.740051 381.770782,318.002228 378.108276,318.009918 
	C366.959839,318.033325 359.258423,323.077026 356.181335,333.666656 
	C354.321716,340.066406 353.444824,346.887970 353.118896,353.568451 
	C352.463928,366.994354 352.376312,380.452911 352.315613,393.899170 
	C352.301392,397.049194 354.106384,400.000732 357.659332,399.831512 
	C361.659851,399.640900 365.614105,398.480438 369.888489,396.915161 
M342.627716,341.194092 
	C340.478607,328.725616 333.726074,320.835327 320.609863,319.883820 
	C312.196472,319.273407 303.740204,319.179565 295.300110,319.036560 
	C289.410675,318.936737 288.039917,320.430267 288.007080,326.348877 
	C287.966431,333.674072 288.052795,341.000916 287.928741,348.324463 
	C287.687256,362.583771 287.060059,376.844238 287.215729,391.097443 
	C287.257843,394.952545 287.735748,400.204315 294.112549,399.972626 
	C303.543884,399.629944 313.008057,399.682983 322.399017,398.877167 
	C332.238037,398.032959 341.365997,388.655762 341.910095,378.842468 
	C342.588959,366.598633 342.600128,354.317749 342.627716,341.194092 
M136.113937,349.019653 
	C128.189728,349.019653 120.265533,349.019653 112.357773,349.019653 
	C112.357773,344.612946 112.357773,341.036377 112.357773,336.999847 
	C118.839897,336.999847 124.971687,337.073517 131.100494,336.970154 
	C134.387283,336.914734 138.313690,337.546600 140.723770,335.979828 
	C142.302032,334.953796 141.647736,330.541351 142.068939,327.656647 
	C142.185181,326.860565 142.715393,326.121033 142.809830,325.326355 
	C143.152039,322.446503 142.162857,320.182892 139.007416,320.075958 
	C126.066315,319.637482 113.120445,319.237152 100.173775,319.128326 
	C96.265594,319.095490 93.909363,321.134644 93.937332,325.708466 
	C94.078926,348.864838 94.055214,372.022797 93.942307,395.179474 
	C93.926613,398.397797 95.273277,399.900055 98.193817,399.919220 
	C111.352303,400.005646 124.512054,400.029999 137.670349,399.936707 
	C141.528824,399.909332 142.811417,396.801758 142.818115,393.782074 
	C142.827026,389.775909 144.909729,384.894836 139.579025,382.321960 
	C139.151031,382.115387 138.615417,382.058807 138.129272,382.056641 
	C130.916672,382.024841 123.703888,382.030701 116.491394,381.986328 
	C114.740570,381.975555 112.990662,381.815735 111.389153,381.732208 
	C111.389153,376.502502 111.389153,371.920288 111.389153,367.196228 
	C118.188080,366.782349 124.607964,366.160797 131.036575,366.051147 
	C142.334641,365.858398 142.046005,367.595398 142.024033,354.348267 
	C142.018204,350.840759 140.563705,349.044098 136.113937,349.019653 
M475.309784,325.179565 
	C475.214294,323.974731 475.532227,322.020142 474.949524,321.698853 
	C472.782593,320.503998 470.342712,319.186920 467.963593,319.103333 
	C458.764526,318.780029 458.130249,319.692688 457.958679,328.750092 
	C457.830231,335.531036 457.605652,342.335297 456.882843,349.071075 
	C456.394348,353.622925 453.374176,356.456116 448.653931,356.967102 
	C444.208801,357.448242 439.537872,356.706757 438.624634,351.842438 
	C437.311768,344.849457 436.603302,337.566895 436.991730,330.482208 
	C437.350372,323.940399 436.023590,319.983704 430.762482,319.082214 
	C422.787842,317.715698 418.737122,320.865509 419.072662,328.833252 
	C419.447571,337.734650 419.526154,346.793732 421.375275,355.432831 
	C422.465149,360.524750 425.661774,367.128510 429.818756,369.172760 
	C437.346405,372.874603 439.004791,377.680969 438.028534,384.892670 
	C437.829285,386.364624 438.000885,387.886658 438.000519,389.385620 
	C437.997833,400.210602 437.997711,400.210510 448.670685,399.993835 
	C449.003723,399.987061 449.337006,399.979095 449.669922,399.985535 
	C453.399933,400.057831 455.113403,398.310974 455.029877,394.505280 
	C454.905609,388.845398 455.095978,383.178406 454.964081,377.518860 
	C454.900757,374.802795 455.685303,373.475952 458.547729,372.610352 
	C467.013092,370.050568 471.895386,363.846100 473.995148,355.473938 
	C476.435425,345.743958 476.643951,335.878204 475.309784,325.179565 
z"/>
<path fill="#008080" opacity="1.000000" stroke="none" 
	d="
M154.853088,49.001846 
	C177.023865,50.559940 197.029572,57.340294 214.873260,69.632370 
	C243.678543,89.475609 261.324554,116.760475 266.932648,151.427139 
	C268.220825,159.390182 268.868927,167.539490 268.909485,175.607605 
	C269.107178,214.918686 268.998779,254.231323 268.998749,293.543396 
	C268.998718,295.494324 268.998749,297.445251 268.998749,299.693665 
	C185.210281,299.693665 102.002068,299.693665 18.000017,299.693665 
	C18.000017,297.521515 18.000010,295.432068 18.000017,293.342651 
	C18.000179,250.532471 18.154716,207.721420 17.916197,164.912567 
	C17.833479,150.066879 21.383236,136.181946 27.133789,122.757378 
	C33.913795,106.929588 43.537781,93.022308 56.270390,81.323456 
	C75.127823,63.997047 97.150444,53.173950 122.587173,50.141167 
	C133.078293,48.890331 143.770996,49.330418 154.853088,49.001846 
z"/>
<path fill="#008080" opacity="1.000000" stroke="none" 
	d="
M459.689972,104.351669 
	C470.260956,120.118980 476.388702,137.317047 478.790588,155.576797 
	C482.675049,185.107407 478.884247,213.717789 463.934052,239.884369 
	C452.939667,259.127319 437.520111,274.461517 418.357178,285.863098 
	C403.561676,294.666138 387.342499,299.266327 370.513245,301.881348 
	C364.981354,302.740906 359.303650,302.924896 353.690369,302.951935 
	C330.362732,303.064392 307.034241,302.998932 283.706085,302.998779 
	C281.732086,302.998749 279.758057,302.998779 277.393372,302.998779 
	C277.393372,218.366989 277.393372,134.139786 277.393372,49.267883 
	C278.989349,49.184120 280.739014,49.013268 282.488739,49.012257 
	C310.815796,48.995914 339.152954,48.553787 367.465607,49.192703 
	C381.345673,49.505932 394.599731,53.950256 407.312164,59.681206 
	C428.988220,69.453110 445.976257,84.695297 459.689972,104.351669 
z"/>
<path fill="#008080" opacity="1.000000" stroke="none" 
	d="
M192.932724,375.908936 
	C191.270721,382.175049 189.536301,388.000946 188.123795,393.903931 
	C186.890060,399.059784 183.179688,399.875702 178.761261,400.024689 
	C174.125778,400.180969 170.332397,399.600067 168.884384,394.086243 
	C163.382294,373.135254 157.658630,352.242432 152.027328,331.325317 
	C151.856613,330.691223 151.871750,330.001709 151.664246,329.383667 
	C149.215546,322.089935 149.533691,320.445221 153.682144,319.214874 
	C159.633850,317.449646 166.685852,320.223724 168.052139,325.180206 
	C171.150604,336.420380 174.021744,347.723145 177.010010,358.993927 
	C177.292267,360.058533 177.749222,361.076843 178.647141,363.560974 
	C180.977066,354.387695 182.895584,346.622101 184.933701,338.888031 
	C186.187881,334.128784 187.752289,329.449463 188.943039,324.675812 
	C190.090454,320.076050 193.131638,318.907501 197.445984,318.948608 
	C201.862717,318.990753 205.700943,319.301666 207.038086,324.595459 
	C209.931656,336.051208 212.990738,347.465179 215.999542,358.891663 
	C216.328247,360.139984 216.770706,361.358368 217.352173,363.197052 
	C221.015518,349.911682 224.426147,337.222656 228.038864,324.591461 
	C229.582306,319.195099 241.545029,316.471191 244.957260,320.844025 
	C246.013885,322.198120 245.981415,325.004333 245.473236,326.882050 
	C241.325882,342.207214 236.894638,357.455231 232.665466,372.758698 
	C230.962692,378.920258 229.351028,385.120819 228.060516,391.378448 
	C226.819504,397.395966 224.600601,399.673309 218.649918,399.988068 
	C212.107620,400.334167 208.748428,398.143982 207.176743,392.249969 
	C204.387573,381.790375 201.702408,371.303131 198.963242,360.830170 
	C198.819656,360.281219 198.578537,359.757812 197.960754,358.068085 
	C196.084274,364.663025 194.542221,370.082642 192.932724,375.908936 
z"/>
<path fill="#008080" opacity="1.000000" stroke="none" 
	d="
M24.000057,383.039398 
	C23.667177,378.281616 23.008516,373.996643 23.060316,369.720276 
	C23.243416,354.604187 23.623747,339.489716 24.077888,324.379059 
	C24.121187,322.938446 24.802425,320.988983 25.870398,320.199371 
	C30.294416,316.928406 38.752506,319.300842 41.581978,324.073761 
	C48.628311,335.959869 55.823742,347.757568 64.310898,359.542267 
	C64.540520,352.058563 64.814835,344.575897 64.982628,337.090820 
	C65.079712,332.759674 64.743744,328.400269 65.143776,324.104004 
	C65.292091,322.511078 66.826065,319.925140 68.005562,319.758698 
	C71.675056,319.241058 75.523003,319.360901 79.200516,319.910583 
	C80.300941,320.075104 81.862427,322.456390 81.871635,323.831055 
	C82.030106,347.496277 81.980011,371.162933 81.970985,394.829254 
	C81.969681,398.249634 80.342941,399.547821 76.841270,400.118164 
	C68.514671,401.474457 64.332672,397.442139 60.649479,390.552765 
	C54.942413,379.877686 48.235584,369.737091 40.999405,359.557526 
	C40.999405,367.775330 41.000080,375.993103 40.999088,384.210876 
	C40.998665,387.710846 40.956196,391.211334 41.003166,394.710632 
	C41.051014,398.275574 39.877903,400.438568 35.785072,400.037140 
	C33.473766,399.810425 31.121609,400.030731 28.789333,399.980682 
	C24.673086,399.892303 22.559298,397.363953 23.042845,393.336945 
	C23.434870,390.072083 23.686316,386.790405 24.000057,383.039398 
z"/>
<path fill="#008080" opacity="1.000000" stroke="none" 
	d="
M369.738495,397.328522 
	C365.614105,398.480438 361.659851,399.640900 357.659332,399.831512 
	C354.106384,400.000732 352.301392,397.049194 352.315613,393.899170 
	C352.376312,380.452911 352.463928,366.994354 353.118896,353.568451 
	C353.444824,346.887970 354.321716,340.066406 356.181335,333.666656 
	C359.258423,323.077026 366.959839,318.033325 378.108276,318.009918 
	C381.770782,318.002228 385.479645,317.740051 389.088043,318.207001 
	C403.385834,320.057159 408.624237,330.957336 408.903809,341.407959 
	C409.286102,355.697479 408.988739,370.004883 409.007263,384.304626 
	C409.012085,388.035614 409.281006,391.774292 409.112579,395.495148 
	C408.950897,399.068237 406.560944,399.972565 403.267609,400.039948 
	C391.256653,400.285614 390.994659,400.104950 391.002808,388.161926 
	C391.005829,383.691284 391.003296,379.220642 391.003296,374.378113 
	C384.336090,374.378113 378.095520,374.378113 371.343658,374.378113 
	C370.862122,381.836090 370.375305,389.375610 369.738495,397.328522 
M386.044739,336.087769 
	C377.116333,333.438629 372.074158,336.213409 371.119629,344.689606 
	C370.682343,348.572540 371.045227,352.545624 371.045227,356.581451 
	C378.326202,356.581451 385.010895,356.581451 391.956970,356.581451 
	C391.929718,349.101471 392.593933,341.936188 386.044739,336.087769 
z"/>
<path fill="#008080" opacity="1.000000" stroke="none" 
	d="
M342.763641,341.623474 
	C342.600128,354.317749 342.588959,366.598633 341.910095,378.842468 
	C341.365997,388.655762 332.238037,398.032959 322.399017,398.877167 
	C313.008057,399.682983 303.543884,399.629944 294.112549,399.972626 
	C287.735748,400.204315 287.257843,394.952545 287.215729,391.097443 
	C287.060059,376.844238 287.687256,362.583771 287.928741,348.324463 
	C288.052795,341.000916 287.966431,333.674072 288.007080,326.348877 
	C288.039917,320.430267 289.410675,318.936737 295.300110,319.036560 
	C303.740204,319.179565 312.196472,319.273407 320.609863,319.883820 
	C333.726074,320.835327 340.478607,328.725616 342.763641,341.623474 
M308.543884,381.993439 
	C311.652161,381.667023 314.759766,381.334229 317.868866,381.015961 
	C321.258148,380.669006 323.699982,378.813385 323.874054,375.489990 
	C324.393646,365.571442 324.867981,355.623108 324.593353,345.707611 
	C324.514099,342.847015 322.452911,338.396362 320.234863,337.584015 
	C315.686035,335.918060 310.416351,336.220337 305.021637,335.669220 
	C305.021637,350.991974 304.973511,365.137756 305.133698,379.281189 
	C305.143982,380.189789 306.764099,381.080109 308.543884,381.993439 
z"/>
<path fill="#008080" opacity="1.000000" stroke="none" 
	d="
M136.571228,349.019714 
	C140.563705,349.044098 142.018204,350.840759 142.024033,354.348267 
	C142.046005,367.595398 142.334641,365.858398 131.036575,366.051147 
	C124.607964,366.160797 118.188080,366.782349 111.389153,367.196228 
	C111.389153,371.920288 111.389153,376.502502 111.389153,381.732208 
	C112.990662,381.815735 114.740570,381.975555 116.491394,381.986328 
	C123.703888,382.030701 130.916672,382.024841 138.129272,382.056641 
	C138.615417,382.058807 139.151031,382.115387 139.579025,382.321960 
	C144.909729,384.894836 142.827026,389.775909 142.818115,393.782074 
	C142.811417,396.801758 141.528824,399.909332 137.670349,399.936707 
	C124.512054,400.029999 111.352303,400.005646 98.193817,399.919220 
	C95.273277,399.900055 93.926613,398.397797 93.942307,395.179474 
	C94.055214,372.022797 94.078926,348.864838 93.937332,325.708466 
	C93.909363,321.134644 96.265594,319.095490 100.173775,319.128326 
	C113.120445,319.237152 126.066315,319.637482 139.007416,320.075958 
	C142.162857,320.182892 143.152039,322.446503 142.809830,325.326355 
	C142.715393,326.121033 142.185181,326.860565 142.068939,327.656647 
	C141.647736,330.541351 142.302032,334.953796 140.723770,335.979828 
	C138.313690,337.546600 134.387283,336.914734 131.100494,336.970154 
	C124.971687,337.073517 118.839897,336.999847 112.357773,336.999847 
	C112.357773,341.036377 112.357773,344.612946 112.357773,349.019653 
	C120.265533,349.019653 128.189728,349.019653 136.571228,349.019714 
z"/>
<path fill="#008080" opacity="1.000000" stroke="none" 
	d="
M475.197998,325.576508 
	C476.643951,335.878204 476.435425,345.743958 473.995148,355.473938 
	C471.895386,363.846100 467.013092,370.050568 458.547729,372.610352 
	C455.685303,373.475952 454.900757,374.802795 454.964081,377.518860 
	C455.095978,383.178406 454.905609,388.845398 455.029877,394.505280 
	C455.113403,398.310974 453.399933,400.057831 449.669922,399.985535 
	C449.337006,399.979095 449.003723,399.987061 448.670685,399.993835 
	C437.997711,400.210510 437.997833,400.210602 438.000519,389.385620 
	C438.000885,387.886658 437.829285,386.364624 438.028534,384.892670 
	C439.004791,377.680969 437.346405,372.874603 429.818756,369.172760 
	C425.661774,367.128510 422.465149,360.524750 421.375275,355.432831 
	C419.526154,346.793732 419.447571,337.734650 419.072662,328.833252 
	C418.737122,320.865509 422.787842,317.715698 430.762482,319.082214 
	C436.023590,319.983704 437.350372,323.940399 436.991730,330.482208 
	C436.603302,337.566895 437.311768,344.849457 438.624634,351.842438 
	C439.537872,356.706757 444.208801,357.448242 448.653931,356.967102 
	C453.374176,356.456116 456.394348,353.622925 456.882843,349.071075 
	C457.605652,342.335297 457.830231,335.531036 457.958679,328.750092 
	C458.130249,319.692688 458.764526,318.780029 467.963593,319.103333 
	C470.342712,319.186920 472.782593,320.503998 474.949524,321.698853 
	C475.532227,322.020142 475.214294,323.974731 475.197998,325.576508 
z"/>
<path fill="#000000" opacity="1.000000" stroke="none" 
	d="
M386.416992,336.229614 
	C392.593933,341.936188 391.929718,349.101471 391.956970,356.581451 
	C385.010895,356.581451 378.326202,356.581451 371.045227,356.581451 
	C371.045227,352.545624 370.682343,348.572540 371.119629,344.689606 
	C372.074158,336.213409 377.116333,333.438629 386.416992,336.229614 
z"/>
<path fill="#000000" opacity="1.000000" stroke="none" 
	d="
M308.089600,381.986206 
	C306.764099,381.080109 305.143982,380.189789 305.133698,379.281189 
	C304.973511,365.137756 305.021637,350.991974 305.021637,335.669220 
	C310.416351,336.220337 315.686035,335.918060 320.234863,337.584015 
	C322.452911,338.396362 324.514099,342.847015 324.593353,345.707611 
	C324.867981,355.623108 324.393646,365.571442 323.874054,375.489990 
	C323.699982,378.813385 321.258148,380.669006 317.868866,381.015961 
	C314.759766,381.334229 311.652161,381.667023 308.089600,381.986206 
z"/>
</svg>