<svg version="1.1" id="Layer_1" xmlns="http://www.w3.org/2000/svg" xmlns:xlink="http://www.w3.org/1999/xlink" x="0px" y="0px"
	 width="100%" viewBox="0 0 500 500" enable-background="new 0 0 500 500" xml:space="preserve">
<path fill="#000000" opacity="1.000000" stroke="none" 
	d="
M329.000000,501.000000 
	C219.333359,501.000000 110.166718,501.000000 1.000059,501.000000 
	C1.000039,334.333405 1.000039,167.666794 1.000020,1.000148 
	C167.666565,1.000099 334.333130,1.000099 500.999756,1.000049 
	C500.999847,167.666519 500.999847,334.333038 500.999939,500.999786 
	C443.833344,501.000000 386.666656,501.000000 329.000000,501.000000 
M168.777161,346.621704 
	C168.850357,344.803894 168.986557,342.986084 168.987381,341.168243 
	C169.002029,309.147522 168.979065,277.126740 169.057861,245.106201 
	C169.062256,243.314651 169.876892,241.525101 170.612106,239.930099 
	C170.612106,239.930099 170.958939,240.010849 171.272949,240.622238 
	C172.098587,241.148865 172.965500,241.621033 173.743561,242.210464 
	C182.491135,248.837387 191.225067,255.482330 200.264618,262.727509 
	C205.277817,266.407837 210.360794,269.997314 215.291458,273.785095 
	C231.797073,286.464783 248.245789,299.218536 264.721069,311.937744 
	C277.538940,321.833405 290.479736,331.574860 303.134186,341.675110 
	C308.961761,346.326447 315.073059,349.182373 322.614716,347.947968 
	C336.644745,345.651489 350.545105,343.194672 363.028564,335.527435 
	C379.504364,325.408173 392.466614,312.085480 401.868347,295.257599 
	C408.165833,283.985870 410.926880,271.618256 412.948517,258.072693 
	C412.953247,254.969223 413.071045,251.860825 412.936188,248.763428 
	C412.735077,244.144653 412.355865,239.533630 412.025208,234.979080 
	C412.025208,234.979080 412.084015,234.949783 412.006927,234.092560 
	C410.935791,222.236420 407.366211,211.064163 401.920624,200.592224 
	C396.338806,189.858292 388.661835,180.651199 379.845154,172.316177 
	C365.771637,159.011475 348.846527,152.013443 329.599030,148.152344 
	C299.515167,148.084686 269.431305,148.008469 239.347412,147.995087 
	C238.532120,147.994720 237.716553,148.672729 236.266769,149.589844 
	C236.199783,168.052078 236.115768,186.514297 236.112579,204.976547 
	C236.112396,205.971756 236.488876,207.363419 237.197937,207.902771 
	C247.357666,215.630493 257.604797,223.243301 268.192322,231.505692 
	C269.852936,232.767273 271.513580,234.028854 273.396210,235.835785 
	C276.360413,237.971786 279.324585,240.107773 282.288788,242.243774 
	C282.819885,242.083099 283.351013,241.922440 283.882111,241.761765 
	C283.882111,237.140396 283.882111,232.519012 283.988464,227.295242 
	C283.671906,226.571152 283.355347,225.847061 283.517700,224.936386 
	C283.620453,224.639175 283.723206,224.341965 283.957092,223.112640 
	C284.212250,213.443253 284.467377,203.773849 284.903961,193.625229 
	C284.917175,193.454941 284.930359,193.284653 285.883545,192.968964 
	C299.932556,192.884720 313.981567,192.800476 328.772339,192.924698 
	C333.724091,194.987503 339.102844,196.381821 343.555450,199.226059 
	C365.666656,213.350266 372.931213,233.072098 369.709839,256.700195 
	C366.646393,279.169739 352.474152,293.908813 331.335907,301.770599 
	C329.079773,302.609711 325.784760,303.154144 323.943054,302.114502 
	C319.419128,299.560699 315.443481,296.027039 311.280457,292.844147 
	C292.245667,278.290863 273.222290,263.722626 253.883636,248.474060 
	C251.854797,247.075180 249.825943,245.676300 247.267059,243.845184 
	C244.536575,241.780914 241.754883,239.780518 239.085510,237.640045 
	C231.929916,231.902328 224.962814,225.919952 217.664749,220.371643 
	C204.945023,210.701492 191.955978,201.385910 179.220383,191.736221 
	C161.548264,178.346176 144.005936,164.784836 125.478539,151.260239 
	C125.321922,152.061630 125.028473,152.862991 125.028191,153.664429 
	C125.005913,217.022308 125.000534,280.380188 125.059402,343.738007 
	C125.060349,344.752747 125.869659,345.766754 126.623535,347.011597 
	C126.623535,347.011597 127.003212,347.123535 127.476433,347.840698 
	C140.159088,347.888733 152.841766,347.955658 165.524368,347.940857 
	C166.340454,347.939911 167.155807,347.308197 168.777161,346.621704 
z"/>
<path fill="#0271BC" opacity="1.000000" stroke="none" 
	d="
M412.834229,259.005005 
	C410.926880,271.618256 408.165833,283.985870 401.868347,295.257599 
	C392.466614,312.085480 379.504364,325.408173 363.028564,335.527435 
	C350.545105,343.194672 336.644745,345.651489 322.614716,347.947968 
	C315.073059,349.182373 308.961761,346.326447 303.134186,341.675110 
	C290.479736,331.574860 277.538940,321.833405 264.721069,311.937744 
	C248.245789,299.218536 231.797073,286.464783 215.291458,273.785095 
	C210.360794,269.997314 205.277817,266.407837 200.198822,262.099548 
	C200.429214,260.624695 200.725388,259.777740 201.488495,258.952576 
	C220.808960,258.974335 239.662491,258.974335 258.516022,258.974335 
	C258.668396,258.522339 258.820770,258.070343 258.973145,257.618317 
	C257.560394,256.380219 256.203735,255.069626 254.720749,253.922241 
	C252.838425,252.465881 251.891876,251.023819 254.194824,249.159760 
	C273.222290,263.722626 292.245667,278.290863 311.280457,292.844147 
	C315.443481,296.027039 319.419128,299.560699 323.943054,302.114502 
	C325.784760,303.154144 329.079773,302.609711 331.335907,301.770599 
	C352.474152,293.908813 366.646393,279.169739 369.709839,256.700195 
	C372.931213,233.072098 365.666656,213.350266 343.555450,199.226059 
	C339.102844,196.381821 333.724091,194.987503 328.002563,192.700287 
	C313.685913,192.354111 300.139160,192.220444 286.592041,192.153641 
	C286.044159,192.150925 285.493103,192.779770 284.943542,193.114365 
	C284.930359,193.284653 284.917175,193.454941 284.595734,194.141541 
	C283.936462,196.405701 283.367035,198.142288 283.276337,199.903549 
	C283.029938,204.687119 282.986389,209.481140 282.636230,213.944916 
	C281.938446,208.060226 281.209442,202.508652 281.057617,196.941345 
	C280.846985,189.217728 281.220245,189.001938 288.747314,188.989059 
	C299.892487,188.970001 311.043915,188.740433 322.181488,189.030563 
	C340.854340,189.516937 354.558258,198.922531 364.441498,214.128967 
	C367.847809,219.369904 370.016418,225.415298 372.804932,231.509338 
	C373.235199,234.547821 373.730347,237.160049 373.953278,239.795319 
	C374.178040,242.452087 375.217560,243.945038 378.053436,243.186234 
	C388.106354,240.496246 398.142792,237.744705 408.575378,235.011154 
	C410.004822,234.987122 411.044434,234.968460 412.084015,234.949783 
	C412.084015,234.949783 412.025208,234.979080 412.024780,235.422974 
	C412.294342,243.579575 412.564270,251.292282 412.834229,259.005005 
z"/>
<path fill="#0171BC" opacity="1.000000" stroke="none" 
	d="
M170.958939,240.010849 
	C170.958939,240.010849 170.612106,239.930099 170.370361,239.633575 
	C170.128601,239.337036 169.956680,238.933075 169.763794,238.746109 
	C165.148651,238.173233 167.111557,241.632355 167.100540,243.254639 
	C166.940475,266.795471 166.968216,290.337585 166.760223,314.147064 
	C165.114746,318.473877 161.973816,319.312134 158.068176,318.799316 
	C157.995956,318.770966 157.735779,318.886444 157.735779,318.886444 
	C157.735779,318.886444 157.785583,319.183167 157.808105,319.489685 
	C156.798157,321.433044 155.310471,322.955658 154.862915,324.739258 
	C154.426895,326.476990 155.055084,328.481750 155.205475,330.245667 
	C152.596451,330.604645 152.822067,324.361420 148.859039,328.215485 
	C147.027374,330.831390 145.506287,333.406982 143.618042,335.997498 
	C138.477173,339.614410 133.703445,343.216370 128.612045,346.888977 
	C127.863998,347.014282 127.433609,347.068909 127.003212,347.123535 
	C127.003212,347.123535 126.623535,347.011597 126.396103,346.446533 
	C126.165337,315.925995 126.162018,285.970581 126.456787,255.897766 
	C127.846886,254.793365 128.938904,253.806366 130.448425,252.880737 
	C139.218155,253.944199 147.554459,255.115768 155.926987,255.901581 
	C164.640762,256.719452 165.300552,255.891830 164.592468,246.632187 
	C164.637100,243.822678 164.616470,241.454819 164.666550,238.665558 
	C164.804169,236.831833 164.871063,235.419540 165.215073,233.900757 
	C166.009796,233.505722 166.527435,233.217178 167.297897,232.931213 
	C167.719299,232.935043 167.887848,232.936295 168.278305,233.180573 
	C170.683762,235.252594 172.867325,237.081604 174.736328,239.076782 
	C173.267487,239.498917 172.113220,239.754883 170.958939,240.010849 
z"/>
<path fill="#0A72B8" opacity="1.000000" stroke="none" 
	d="
M412.045471,234.521179 
	C411.044434,234.968460 410.004822,234.987122 408.539276,234.636383 
	C408.048584,233.518356 407.983826,232.769745 407.964600,231.754181 
	C408.038910,231.309006 408.067657,231.130783 408.351501,230.750153 
	C410.603851,228.020248 410.212463,226.147568 407.029327,224.639145 
	C399.879456,197.538696 384.411560,177.007141 360.666321,163.046692 
	C350.887909,157.297699 340.111176,153.198105 328.557495,153.080795 
	C301.104492,152.802032 273.646393,153.060013 246.191391,152.910477 
	C241.267853,152.883652 239.886276,154.964600 239.948227,159.527802 
	C240.126694,172.670898 240.162430,185.820618 239.931839,198.962097 
	C239.849457,203.657471 241.676743,206.857864 245.287552,209.501816 
	C253.199875,215.295471 261.041229,221.186066 268.783356,227.347687 
	C268.380402,228.733459 268.105652,229.808609 267.830933,230.883759 
	C257.604797,223.243301 247.357666,215.630493 237.197937,207.902771 
	C236.488876,207.363419 236.112396,205.971756 236.112579,204.976547 
	C236.115768,186.514297 236.199783,168.052078 237.058685,149.336075 
	C268.579712,149.023376 299.308777,148.964462 330.037872,148.905533 
	C348.846527,152.013443 365.771637,159.011475 379.845154,172.316177 
	C388.661835,180.651199 396.338806,189.858292 401.920624,200.592224 
	C407.366211,211.064163 410.935791,222.236420 412.045471,234.521179 
z"/>
<path fill="#0A72B8" opacity="1.000000" stroke="none" 
	d="
M130.030914,252.819351 
	C128.938904,253.806366 127.846886,254.793365 126.409592,255.429855 
	C126.036140,221.969849 126.002403,188.860367 125.998123,155.750885 
	C125.997932,154.266220 126.265297,152.781509 126.408035,151.296829 
	C144.005936,164.784836 161.548264,178.346176 179.220383,191.736221 
	C191.955978,201.385910 204.945023,210.701492 217.664749,220.371643 
	C224.962814,225.919952 231.929916,231.902328 239.085510,237.640045 
	C241.754883,239.780518 244.536575,241.780914 247.475555,244.351105 
	C246.790848,245.570084 245.897629,246.283127 244.784210,246.747345 
	C241.073334,243.958908 237.582642,241.419327 233.872910,238.630646 
	C229.793427,235.549362 225.933014,232.717163 221.875000,229.617889 
	C220.458710,228.224319 219.319733,226.994003 218.009048,225.987259 
	C203.501526,214.843750 188.939865,203.770630 174.448349,192.606461 
	C160.349625,181.744873 146.320175,170.793396 132.235672,159.913269 
	C131.661545,159.469772 130.835709,159.352142 129.204483,158.731827 
	C129.204483,183.291687 129.204483,207.182449 129.172134,231.511688 
	C129.198120,234.326752 129.256470,236.703308 129.284149,239.525833 
	C129.256302,242.663742 129.259125,245.355698 129.222473,248.400955 
	C129.465637,250.109283 129.748276,251.464325 130.030914,252.819351 
z"/>
<path fill="#4294CD" opacity="1.000000" stroke="none" 
	d="
M245.004395,246.996155 
	C245.897629,246.283127 246.790848,245.570084 247.740570,244.567230 
	C249.825943,245.676300 251.854797,247.075180 254.039230,248.816910 
	C251.891876,251.023819 252.838425,252.465881 254.720749,253.922241 
	C256.203735,255.069626 257.560394,256.380219 258.973145,257.618317 
	C258.820770,258.070343 258.668396,258.522339 258.516022,258.974335 
	C239.662491,258.974335 220.808960,258.974335 201.282898,258.695435 
	C197.354187,255.645798 194.098007,252.875076 191.207642,249.929626 
	C194.330948,249.206833 197.081223,248.230972 199.847153,248.184387 
	C212.117569,247.977753 224.393112,248.096375 236.665207,247.956589 
	C239.448212,247.924911 242.224838,247.331177 245.004395,246.996155 
z"/>
<path fill="#2D89C8" opacity="1.000000" stroke="none" 
	d="
M268.011627,231.194733 
	C268.105652,229.808609 268.380402,228.733459 268.907166,227.085266 
	C270.686646,224.773788 272.044373,222.838760 273.779572,221.341049 
	C276.680298,218.837326 279.822144,216.612976 282.862427,214.271027 
	C282.986389,209.481140 283.029938,204.687119 283.276337,199.903549 
	C283.367035,198.142288 283.936462,196.405701 284.505005,194.381165 
	C284.467377,203.773849 284.212250,213.443253 283.748138,223.749023 
	C283.349426,224.615677 283.182617,224.861542 283.038788,225.122986 
	C283.355347,225.847061 283.671906,226.571152 283.624359,227.679413 
	C282.461182,228.696671 281.662109,229.329727 280.547485,230.063080 
	C278.796448,230.814163 277.360901,231.464935 275.617737,232.203537 
	C274.598145,233.291046 273.886169,234.290741 273.174194,235.290436 
	C271.513580,234.028854 269.852936,232.767273 268.011627,231.194733 
M280.967468,219.867340 
	C280.967468,219.867340 281.008270,220.136932 281.008270,220.136932 
	C281.008270,220.136932 281.078766,219.875351 280.967468,219.867340 
z"/>
<path fill="#5D9CD0" opacity="1.000000" stroke="none" 
	d="
M125.943283,151.278534 
	C126.265297,152.781509 125.997932,154.266220 125.998123,155.750885 
	C126.002403,188.860367 126.036140,221.969849 126.111504,255.547241 
	C126.162018,285.970581 126.165337,315.925995 126.235199,346.331268 
	C125.869659,345.766754 125.060349,344.752747 125.059402,343.738007 
	C125.000534,280.380188 125.005913,217.022308 125.028191,153.664429 
	C125.028473,152.862991 125.321922,152.061630 125.943283,151.278534 
z"/>
<path fill="#0A72B8" opacity="1.000000" stroke="none" 
	d="
M190.841843,250.104340 
	C194.098007,252.875076 197.354187,255.645798 200.815948,258.673645 
	C200.725388,259.777740 200.429214,260.624695 200.047852,261.797028 
	C191.225067,255.482330 182.491135,248.837387 173.743561,242.210464 
	C172.965500,241.621033 172.098587,241.148865 171.115936,240.316544 
	C172.113220,239.754883 173.267487,239.498917 175.020401,239.227539 
	C176.972672,239.850357 178.326324,240.488617 179.882538,241.403137 
	C183.670685,244.487717 187.256271,247.296021 190.841843,250.104340 
z"/>
<path fill="#79B5C9" opacity="1.000000" stroke="none" 
	d="
M169.956680,238.933075 
	C169.956680,238.933075 170.128601,239.337036 170.221512,239.535828 
	C169.876892,241.525101 169.062256,243.314651 169.057861,245.106201 
	C168.979065,277.126740 169.002029,309.147522 168.987381,341.168243 
	C168.986557,342.986084 168.850357,344.803894 168.376633,346.800964 
	C167.976105,346.980255 167.962219,346.963593 167.960617,346.497253 
	C167.901199,338.376923 167.843384,330.722900 167.812027,322.611267 
	C167.796982,319.409058 167.755478,316.664459 167.797043,313.461487 
	C167.922226,290.122101 167.920532,267.240692 168.090332,244.360596 
	C168.103790,242.546906 169.306595,240.742035 169.956680,238.933075 
z"/>
<path fill="#79B5C9" opacity="1.000000" stroke="none" 
	d="
M329.818451,148.528931 
	C299.308777,148.964462 268.579712,149.023376 237.375854,149.058350 
	C237.716553,148.672729 238.532120,147.994720 239.347412,147.995087 
	C269.431305,148.008469 299.515167,148.084686 329.818451,148.528931 
z"/>
<path fill="#0A72B8" opacity="1.000000" stroke="none" 
	d="
M280.862976,229.962769 
	C281.662109,229.329727 282.461182,228.696671 283.571167,227.980621 
	C283.882111,232.519012 283.882111,237.140396 283.882111,241.761765 
	C283.351013,241.922440 282.819885,242.083099 282.288788,242.243774 
	C279.324585,240.107773 276.360413,237.971786 273.285217,235.563110 
	C273.886169,234.290741 274.598145,233.291046 275.817505,232.441025 
	C277.426971,233.426315 278.529053,234.261917 280.572540,235.811279 
	C280.707703,233.089920 280.785339,231.526352 280.862976,229.962769 
z"/>
<path fill="#2D89C8" opacity="1.000000" stroke="none" 
	d="
M285.413544,193.041656 
	C285.493103,192.779770 286.044159,192.150925 286.592041,192.153641 
	C300.139160,192.220444 313.685913,192.354111 327.631653,192.596054 
	C313.981567,192.800476 299.932556,192.884720 285.413544,193.041656 
z"/>
<path fill="#79B5C9" opacity="1.000000" stroke="none" 
	d="
M127.239822,347.482117 
	C127.433609,347.068909 127.863998,347.014282 129.074646,346.925293 
	C132.947510,346.874939 136.040115,346.858978 139.589478,346.895325 
	C149.351578,346.952911 158.656891,346.958252 167.962219,346.963593 
	C167.962219,346.963593 167.976105,346.980255 167.973816,346.975098 
	C167.155807,347.308197 166.340454,347.939911 165.524368,347.940857 
	C152.841766,347.955658 140.159088,347.888733 127.239822,347.482117 
z"/>
<path fill="#0A72B8" opacity="1.000000" stroke="none" 
	d="
M412.891357,258.538849 
	C412.564270,251.292282 412.294342,243.579575 412.038422,235.393082 
	C412.355865,239.533630 412.735077,244.144653 412.936188,248.763428 
	C413.071045,251.860825 412.953247,254.969223 412.891357,258.538849 
z"/>
<path fill="#2382C5" opacity="1.000000" stroke="none" 
	d="
M283.278259,225.029694 
	C283.182617,224.861542 283.349426,224.615677 283.682587,224.215088 
	C283.723206,224.341965 283.620453,224.639175 283.278259,225.029694 
z"/>
<path fill="#2382C5" opacity="1.000000" stroke="none" 
	d="
M282.636230,213.944916 
	C279.822144,216.612976 276.680298,218.837326 273.779572,221.341049 
	C272.044373,222.838760 270.686646,224.773788 269.035400,226.774658 
	C261.041229,221.186066 253.199875,215.295471 245.287552,209.501816 
	C241.676743,206.857864 239.849457,203.657471 239.931839,198.962097 
	C240.162430,185.820618 240.126694,172.670898 239.948227,159.527802 
	C239.886276,154.964600 241.267853,152.883652 246.191391,152.910477 
	C273.646393,153.060013 301.104492,152.802032 328.557495,153.080795 
	C340.111176,153.198105 350.887909,157.297699 360.666321,163.046692 
	C384.411560,177.007141 399.879456,197.538696 407.095917,225.006805 
	C407.515625,227.489716 407.806000,229.221146 408.096405,230.952560 
	C408.067657,231.130783 408.038910,231.309006 407.584290,231.657440 
	C399.304382,231.481415 391.452606,231.056000 383.595154,230.824387 
	C379.986023,230.718002 376.365662,230.991821 372.750397,231.093231 
	C370.016418,225.415298 367.847809,219.369904 364.441498,214.128967 
	C354.558258,198.922531 340.854340,189.516937 322.181488,189.030563 
	C311.043915,188.740433 299.892487,188.970001 288.747314,188.989059 
	C281.220245,189.001938 280.846985,189.217728 281.057617,196.941345 
	C281.209442,202.508652 281.938446,208.060226 282.636230,213.944916 
M404.401001,223.800262 
	C402.246399,220.546875 399.540955,220.690933 397.096405,223.124908 
	C396.538055,223.680817 397.128448,226.673630 397.934967,227.085175 
	C400.754089,228.523697 403.371735,228.062210 404.401001,223.800262 
z"/>
<path fill="#2D89C8" opacity="1.000000" stroke="none" 
	d="
M372.804932,231.509354 
	C376.365662,230.991821 379.986023,230.718002 383.595154,230.824387 
	C391.452606,231.056000 399.304382,231.481415 407.538757,231.924377 
	C407.983826,232.769745 408.048584,233.518356 408.149414,234.641739 
	C398.142792,237.744705 388.106354,240.496246 378.053436,243.186234 
	C375.217560,243.945038 374.178040,242.452087 373.953278,239.795319 
	C373.730347,237.160049 373.235199,234.547821 372.804932,231.509354 
z"/>
<path fill="#2382C5" opacity="1.000000" stroke="none" 
	d="
M129.204483,231.073212 
	C129.204483,207.182449 129.204483,183.291687 129.204483,158.731827 
	C130.835709,159.352142 131.661545,159.469772 132.235672,159.913269 
	C146.320175,170.793396 160.349625,181.744873 174.448349,192.606461 
	C188.939865,203.770630 203.501526,214.843750 218.009048,225.987259 
	C219.319733,226.994003 220.458710,228.224319 221.563721,229.860138 
	C219.733780,230.895721 218.015030,231.884506 216.301697,231.875214 
	C202.203598,231.798782 188.106796,231.470993 174.008743,231.406601 
	C172.027008,231.397552 170.040634,232.402161 168.056412,232.937561 
	C167.887848,232.936295 167.719299,232.935043 167.151428,232.764145 
	C166.067902,232.406052 165.383667,232.217606 164.298981,231.996552 
	C152.333862,231.667007 140.769165,231.370102 129.204483,231.073212 
M157.037216,222.521408 
	C153.137619,220.961685 150.036957,221.978531 150.502319,224.830521 
	C150.711609,226.113220 152.613174,228.041534 153.779099,228.064835 
	C156.688843,228.123001 158.270294,226.305923 157.037216,222.521408 
z"/>
<path fill="#2D89C8" opacity="1.000000" stroke="none" 
	d="
M168.278305,233.180573 
	C170.040634,232.402161 172.027008,231.397552 174.008743,231.406601 
	C188.106796,231.470993 202.203598,231.798782 216.301697,231.875214 
	C218.015030,231.884506 219.733780,230.895721 221.761307,230.127228 
	C225.933014,232.717163 229.793427,235.549362 233.554504,238.776489 
	C218.483124,239.448227 203.509827,239.673981 188.540146,240.045319 
	C185.579620,240.118744 182.632996,240.751862 179.679962,241.126862 
	C178.326324,240.488617 176.972672,239.850357 175.334961,239.061356 
	C172.867325,237.081604 170.683762,235.252594 168.278305,233.180573 
z"/>
<path fill="#378ECA" opacity="1.000000" stroke="none" 
	d="
M129.261963,248.047653 
	C129.259125,245.355698 129.256302,242.663742 129.665848,239.521942 
	C141.584106,239.077057 153.089966,239.082016 164.595825,239.086975 
	C164.616470,241.454819 164.637100,243.822678 164.194382,246.622925 
	C156.327423,247.362198 148.925369,247.717804 141.519562,247.956650 
	C137.436966,248.088303 133.348038,248.023758 129.261963,248.047653 
z"/>
<path fill="#2D89C8" opacity="1.000000" stroke="none" 
	d="
M164.666565,238.665558 
	C153.089966,239.082016 141.584106,239.077057 129.696533,239.075989 
	C129.256470,236.703308 129.198120,234.326752 129.172134,231.511688 
	C140.769165,231.370102 152.333862,231.667007 164.349655,232.325500 
	C164.846497,233.127136 164.892242,233.567184 164.937973,234.007233 
	C164.871063,235.419540 164.804169,236.831833 164.666565,238.665558 
z"/>
<path fill="#4294CD" opacity="1.000000" stroke="none" 
	d="
M129.222473,248.400955 
	C133.348038,248.023758 137.436966,248.088303 141.519562,247.956650 
	C148.925369,247.717804 156.327423,247.362198 164.129120,247.064575 
	C165.300552,255.891830 164.640762,256.719452 155.926987,255.901581 
	C147.554459,255.115768 139.218155,253.944199 130.448425,252.880737 
	C129.748276,251.464325 129.465637,250.109283 129.222473,248.400955 
z"/>
<path fill="#2D89C8" opacity="1.000000" stroke="none" 
	d="
M167.713974,313.919830 
	C167.755478,316.664459 167.796982,319.409058 167.520477,322.503387 
	C165.792557,322.191132 164.382660,321.529144 163.970398,321.335571 
	C162.329407,324.351288 160.833481,326.586395 159.847855,329.027527 
	C158.207581,333.089966 155.651947,333.814789 151.828888,331.558929 
	C150.830246,330.270477 149.999924,329.222839 149.169601,328.175171 
	C152.822067,324.361420 152.596451,330.604645 155.205475,330.245667 
	C155.055084,328.481750 154.426895,326.476990 154.862915,324.739258 
	C155.310471,322.955658 156.798157,321.433044 157.896851,319.400848 
	C157.963058,319.005524 158.140381,318.827667 158.140381,318.827667 
	C161.973816,319.312134 165.114746,318.473877 166.951248,314.156555 
	C167.333084,313.898346 167.713974,313.919830 167.713974,313.919830 
z"/>
<path fill="#2D89C8" opacity="1.000000" stroke="none" 
	d="
M139.132721,346.843018 
	C136.040115,346.858978 132.947510,346.874939 129.392303,346.854614 
	C133.703445,343.216370 138.477173,339.614410 143.852188,336.215454 
	C144.997330,337.319275 145.541183,338.220032 146.025009,339.465179 
	C143.687546,342.154053 141.410141,344.498535 139.132721,346.843018 
z"/>
<path fill="#0A72B8" opacity="1.000000" stroke="none" 
	d="
M167.797043,313.461487 
	C167.713974,313.919830 167.333084,313.898346 167.142059,313.888855 
	C166.968216,290.337585 166.940475,266.795471 167.100540,243.254639 
	C167.111557,241.632355 165.148651,238.173233 169.763794,238.746109 
	C169.306595,240.742035 168.103790,242.546906 168.090332,244.360596 
	C167.920532,267.240692 167.922226,290.122101 167.797043,313.461487 
z"/>
<path fill="#2382C5" opacity="1.000000" stroke="none" 
	d="
M146.085052,339.120789 
	C145.541183,338.220032 144.997330,337.319275 144.219330,336.200562 
	C145.506287,333.406982 147.027374,330.831390 148.859039,328.215485 
	C149.999924,329.222839 150.830246,330.270477 151.764404,331.945862 
	C151.339462,335.991699 150.094849,338.777496 146.085052,339.120789 
z"/>
<path fill="#0A72B8" opacity="1.000000" stroke="none" 
	d="
M165.215073,233.900757 
	C164.892242,233.567184 164.846497,233.127136 164.750092,232.358124 
	C165.383667,232.217606 166.067902,232.406052 166.898590,232.761566 
	C166.527435,233.217178 166.009796,233.505722 165.215073,233.900757 
z"/>
<path fill="#2D89C8" opacity="1.000000" stroke="none" 
	d="
M157.874329,319.094360 
	C157.785583,319.183167 157.735779,318.886444 157.735779,318.886444 
	C157.735779,318.886444 157.995956,318.770966 158.068176,318.799316 
	C158.140381,318.827667 157.963058,319.005524 157.874329,319.094360 
z"/>
<path fill="#0271BC" opacity="1.000000" stroke="none" 
	d="
M408.351501,230.750153 
	C407.806000,229.221146 407.515625,227.489716 407.158661,225.390640 
	C410.212463,226.147568 410.603851,228.020248 408.351501,230.750153 
z"/>
<path fill="#378ECA" opacity="1.000000" stroke="none" 
	d="
M179.882538,241.403137 
	C182.632996,240.751862 185.579620,240.118744 188.540146,240.045319 
	C203.509827,239.673981 218.483124,239.448227 233.773560,239.025574 
	C237.582642,241.419327 241.073334,243.958908 244.784210,246.747330 
	C242.224838,247.331177 239.448212,247.924911 236.665207,247.956589 
	C224.393112,248.096375 212.117569,247.977753 199.847153,248.184387 
	C197.081223,248.230972 194.330948,249.206833 191.207642,249.929626 
	C187.256271,247.296021 183.670685,244.487717 179.882538,241.403137 
z"/>
<path fill="#2382C5" opacity="1.000000" stroke="none" 
	d="
M280.547485,230.063080 
	C280.785339,231.526352 280.707703,233.089920 280.572540,235.811279 
	C278.529053,234.261917 277.426971,233.426315 276.125122,232.353210 
	C277.360901,231.464935 278.796448,230.814163 280.547485,230.063080 
z"/>
<path fill="#2382C5" opacity="1.000000" stroke="none" 
	d="
M281.023132,219.871338 
	C281.078766,219.875351 281.008270,220.136932 281.008270,220.136932 
	C281.008270,220.136932 280.967468,219.867340 281.023132,219.871338 
z"/>
<path fill="#0271BC" opacity="1.000000" stroke="none" 
	d="
M146.024994,339.465179 
	C150.094849,338.777496 151.339462,335.991699 151.932709,332.186646 
	C155.651947,333.814789 158.207581,333.089966 159.847855,329.027527 
	C160.833481,326.586395 162.329407,324.351288 163.970398,321.335571 
	C164.382660,321.529144 165.792557,322.191132 167.494019,322.960999 
	C167.843384,330.722900 167.901199,338.376923 167.960617,346.497253 
	C158.656891,346.958252 149.351578,346.952911 139.589478,346.895294 
	C141.410141,344.498535 143.687546,342.154053 146.024994,339.465179 
z"/>
<path fill="#2D89C8" opacity="1.000000" stroke="none" 
	d="
M404.429382,224.138962 
	C403.371735,228.062210 400.754089,228.523697 397.934967,227.085175 
	C397.128448,226.673630 396.538055,223.680817 397.096405,223.124908 
	C399.540955,220.690933 402.246399,220.546875 404.429382,224.138962 
z"/>
<path fill="#2D89C8" opacity="1.000000" stroke="none" 
	d="
M157.215805,222.824463 
	C158.270294,226.305923 156.688843,228.123001 153.779099,228.064835 
	C152.613174,228.041534 150.711609,226.113220 150.502319,224.830521 
	C150.036957,221.978531 153.137619,220.961685 157.215805,222.824463 
z"/>
</svg>