<svg version="1.1" id="Layer_1" xmlns="http://www.w3.org/2000/svg" xmlns:xlink="http://www.w3.org/1999/xlink" x="0px" y="0px"
	 width="100%" viewBox="0 0 500 500" enable-background="new 0 0 500 500" xml:space="preserve">
<path fill="#000000" opacity="1.000000" stroke="none" 
	d="
M251.000000,501.000000 
	C167.333359,501.000000 84.166710,501.000000 1.000045,501.000000 
	C1.000030,334.333405 1.000030,167.666779 1.000015,1.000134 
	C167.666565,1.000089 334.333130,1.000089 500.999756,1.000045 
	C500.999847,167.666519 500.999847,334.333038 500.999939,500.999786 
	C417.833344,501.000000 334.666656,501.000000 251.000000,501.000000 
M256.978271,348.108582 
	C256.978271,311.407928 256.978271,274.707245 256.978271,238.006592 
	C256.615295,238.006973 256.252350,238.007370 255.889389,238.007751 
	C255.889389,274.963928 255.889389,311.920074 254.970200,348.968170 
	C184.038452,348.952576 113.106705,348.936981 42.042870,348.003876 
	C42.042870,309.594208 42.042870,271.184570 42.042870,232.774902 
	C41.710205,232.775742 41.377544,232.776581 41.044880,232.777420 
	C41.044880,271.519318 41.044880,310.261230 41.435482,349.769409 
	C41.926807,349.843719 42.418118,349.983032 42.909454,349.983124 
	C113.051476,349.994965 183.193497,350.001404 253.335495,349.959564 
	C254.533661,349.958832 255.731445,349.368744 256.978271,348.108582 
M474.141449,280.731140 
	C476.275421,271.395966 479.573883,262.151642 480.310852,252.707428 
	C482.065704,230.219757 478.947906,208.342361 467.339569,188.445084 
	C447.055542,153.677185 417.077362,134.624008 376.462067,134.107895 
	C340.989075,133.657135 305.505951,134.002197 270.027313,133.995728 
	C268.116791,133.995377 266.206238,133.995682 263.454285,133.995682 
	C263.454285,161.774460 263.454254,189.041809 263.454254,216.309158 
	C263.454254,259.116760 263.517883,301.924622 263.359497,344.731628 
	C263.342987,349.192047 264.285828,350.697205 269.089844,350.664856 
	C302.568237,350.439453 336.049622,350.673279 369.528076,350.453247 
	C377.589874,350.400238 385.830444,350.060913 393.670227,348.373322 
	C431.996399,340.123230 458.936829,317.940857 474.141449,280.731140 
z"/>
<path fill="#FFFBFD" opacity="1.000000" stroke="none" 
	d="
M473.911163,281.047943 
	C458.936829,317.940857 431.996399,340.123230 393.670227,348.373322 
	C385.830444,350.060913 377.589874,350.400238 369.528076,350.453247 
	C336.049622,350.673279 302.568237,350.439453 269.089844,350.664856 
	C264.285828,350.697205 263.342987,349.192047 263.359497,344.731628 
	C263.517883,301.924622 263.454254,259.116760 263.454254,216.309158 
	C263.454254,189.041809 263.454285,161.774460 263.454285,133.995682 
	C266.206238,133.995682 268.116791,133.995377 270.027313,133.995728 
	C305.505951,134.002197 340.989075,133.657135 376.462067,134.107895 
	C417.077362,134.624008 447.055542,153.677185 467.339569,188.445084 
	C478.947906,208.342361 482.065704,230.219757 480.310852,252.707428 
	C479.573883,262.151642 476.275421,271.395966 473.911163,281.047943 
z"/>
<path fill="#7E0D49" opacity="1.000000" stroke="none" 
	d="
M42.174953,348.921387 
	C113.106705,348.936981 184.038452,348.952576 255.690002,348.966583 
	C256.583008,348.994568 256.756226,349.024109 256.929413,349.053680 
	C255.731445,349.368744 254.533661,349.958832 253.335495,349.959564 
	C183.193497,350.001404 113.051476,349.994965 42.909454,349.983124 
	C42.418118,349.983032 41.926807,349.843719 41.522816,349.368164 
	C41.798416,348.951691 41.986687,348.936523 42.174953,348.921387 
z"/>
<path fill="#760C45" opacity="1.000000" stroke="none" 
	d="
M42.108910,348.462646 
	C41.986687,348.936523 41.798416,348.951691 41.327515,348.984985 
	C41.044880,310.261230 41.044880,271.519318 41.044880,232.777420 
	C41.377544,232.776581 41.710205,232.775742 42.042870,232.774902 
	C42.042870,271.184570 42.042870,309.594208 42.108910,348.462646 
z"/>
<path fill="#440727" opacity="1.000000" stroke="none" 
	d="
M256.953857,348.581116 
	C256.756226,349.024109 256.583008,348.994568 256.149597,348.920624 
	C255.889389,311.920074 255.889389,274.963928 255.889389,238.007751 
	C256.252350,238.007370 256.615295,238.006973 256.978271,238.006592 
	C256.978271,274.707245 256.978271,311.407928 256.953857,348.581116 
z"/>
</svg>